<svg width="32" height="32" viewBox="0 0 32 32" fill="none" xmlns="http://www.w3.org/2000/svg">
<g id="Iconly/Bulk/Time Circle">
<g id="filter 1">
<g id="Ikon">
<path id="Vector" d="M30.0002 21C29.9911 22.436 29.6397 23.8491 28.9753 25.1222C28.3109 26.3953 27.3525 27.4916 26.1796 28.3202C25.0068 29.1488 23.6533 29.6858 22.2314 29.8868C20.8095 30.0877 19.3602 29.9467 18.0037 29.4755C19.3537 28.3637 20.4177 26.9445 21.1063 25.3368C21.7949 23.7292 22.0882 21.9799 21.9615 20.2355C24.2143 18.7733 25.8579 16.541 26.5852 13.9555C27.6492 14.7958 28.5091 15.8661 29.1006 17.0861C29.692 18.3061 29.9995 19.6442 30.0002 21Z" fill="#666666"/>
<path id="Vector_2" d="M19.9879 21.2405C19.9492 22.7538 19.5293 24.2329 18.767 25.5408C18.0047 26.8487 16.9246 27.943 15.6268 28.7224C14.3291 29.5018 12.8556 29.9411 11.3429 29.9996C9.83024 30.0581 8.32726 29.7339 6.9732 29.057C5.61915 28.3801 4.45781 27.3724 3.59678 26.1273C2.73575 24.8822 2.20287 23.4399 2.0475 21.9341C1.89214 20.4283 2.11931 18.9076 2.70797 17.5129C3.29663 16.1183 4.22775 14.8947 5.41507 13.9556C5.83629 15.4285 6.55912 16.7978 7.53769 17.9765C8.51625 19.1553 9.72918 20.1177 11.0995 20.8027C12.4698 21.4877 13.9675 21.8804 15.4977 21.9557C17.0278 22.0311 18.5569 21.7875 19.9879 21.2405Z" fill="#666666"/>
<path id="Vector_3" d="M7 11C7 9.21997 7.52784 7.47991 8.51677 5.99987C9.50571 4.51983 10.9113 3.36628 12.5558 2.68509C14.2004 2.0039 16.01 1.82567 17.7558 2.17294C19.5016 2.5202 21.1053 3.37737 22.364 4.63604C23.6226 5.89471 24.4798 7.49836 24.8271 9.24419C25.1743 10.99 24.9961 12.7996 24.3149 14.4442C23.6337 16.0887 22.4802 17.4943 21.0001 18.4832C19.5201 19.4722 17.78 20 16 20C13.6139 19.9974 11.3262 19.0483 9.63896 17.361C7.95171 15.6738 7.00265 13.3861 7 11Z" fill="#666666"/>
</g>
</g>
</g>
</svg>
