<svg width="32" height="32" viewBox="0 0 32 32" fill="none" xmlns="http://www.w3.org/2000/svg">
<path d="M4.00008 13.3332C4.3537 13.3332 4.69284 13.1927 4.94289 12.9426C5.19294 12.6926 5.33342 12.3535 5.33342 11.9998V6.66651C5.33342 6.31288 5.47389 5.97374 5.72394 5.7237C5.97399 5.47365 6.31313 5.33317 6.66675 5.33317H12.0001C12.3537 5.33317 12.6928 5.1927 12.9429 4.94265C13.1929 4.6926 13.3334 4.35346 13.3334 3.99984C13.3334 3.64622 13.1929 3.30708 12.9429 3.05703C12.6928 2.80698 12.3537 2.6665 12.0001 2.6665H6.66675C5.60588 2.6665 4.58847 3.08793 3.83832 3.83808C3.08818 4.58822 2.66675 5.60564 2.66675 6.66651V11.9998C2.66675 12.3535 2.80722 12.6926 3.05727 12.9426C3.30732 13.1927 3.64646 13.3332 4.00008 13.3332Z" fill="#666666"/>
<path d="M25.3334 2.6665H20.0001C19.6465 2.6665 19.3073 2.80698 19.0573 3.05703C18.8072 3.30708 18.6667 3.64622 18.6667 3.99984C18.6667 4.35346 18.8072 4.6926 19.0573 4.94265C19.3073 5.1927 19.6465 5.33317 20.0001 5.33317H25.3334C25.687 5.33317 26.0262 5.47365 26.2762 5.7237C26.5263 5.97374 26.6667 6.31288 26.6667 6.66651V11.9998C26.6667 12.3535 26.8072 12.6926 27.0573 12.9426C27.3073 13.1927 27.6464 13.3332 28.0001 13.3332C28.3537 13.3332 28.6928 13.1927 28.9429 12.9426C29.1929 12.6926 29.3334 12.3535 29.3334 11.9998V6.66651C29.3334 5.60564 28.912 4.58822 28.1618 3.83808C27.4117 3.08793 26.3943 2.6665 25.3334 2.6665Z" fill="#666666"/>
<path d="M28.0001 18.6665C27.6464 18.6665 27.3073 18.807 27.0573 19.057C26.8072 19.3071 26.6667 19.6462 26.6667 19.9998V25.3332C26.6667 25.6868 26.5263 26.0259 26.2762 26.276C26.0262 26.526 25.687 26.6665 25.3334 26.6665H20.0001C19.6465 26.6665 19.3073 26.807 19.0573 27.057C18.8072 27.3071 18.6667 27.6462 18.6667 27.9998C18.6667 28.3534 18.8072 28.6926 19.0573 28.9426C19.3073 29.1927 19.6465 29.3332 20.0001 29.3332H25.3334C26.3943 29.3332 27.4117 28.9117 28.1618 28.1616C28.912 27.4114 29.3334 26.394 29.3334 25.3332V19.9998C29.3334 19.6462 29.1929 19.3071 28.9429 19.057C28.6928 18.807 28.3537 18.6665 28.0001 18.6665Z" fill="#666666"/>
<path d="M12.0001 26.6665H6.66675C6.31313 26.6665 5.97399 26.526 5.72394 26.276C5.47389 26.0259 5.33342 25.6868 5.33342 25.3332V19.9998C5.33342 19.6462 5.19294 19.3071 4.94289 19.057C4.69284 18.807 4.3537 18.6665 4.00008 18.6665C3.64646 18.6665 3.30732 18.807 3.05727 19.057C2.80722 19.3071 2.66675 19.6462 2.66675 19.9998V25.3332C2.66675 26.394 3.08818 27.4114 3.83832 28.1616C4.58847 28.9117 5.60588 29.3332 6.66675 29.3332H12.0001C12.3537 29.3332 12.6928 29.1927 12.9429 28.9426C13.1929 28.6926 13.3334 28.3534 13.3334 27.9998C13.3334 27.6462 13.1929 27.3071 12.9429 27.057C12.6928 26.807 12.3537 26.6665 12.0001 26.6665Z" fill="#666666"/>
<path d="M21.3333 8H10.6667C9.19391 8 8 9.19391 8 10.6667V21.3333C8 22.8061 9.19391 24 10.6667 24H21.3333C22.8061 24 24 22.8061 24 21.3333V10.6667C24 9.19391 22.8061 8 21.3333 8Z" fill="#666666"/>
</svg>
