<svg width="32" height="32" viewBox="0 0 32 32" fill="none" xmlns="http://www.w3.org/2000/svg">
<g id="Iconly/Bulk/Time Circle">
<g id="doc.text.fill">
<path id="doc.text.fill_2" d="M10.6461 26.4933H21.3537C23.5133 26.4933 24.6283 25.3582 24.6283 23.1886V14.1986H17.0948C15.8392 14.1986 15.2365 13.596 15.2365 12.3404V4.72655H10.6461C8.49658 4.72655 7.37158 5.86159 7.37158 8.04128V23.1886C7.37158 25.3582 8.49658 26.4933 10.6461 26.4933ZM17.2856 12.7321H24.5278C24.4676 12.2701 24.1361 11.8382 23.6138 11.3058L18.1194 5.74106C17.6171 5.22878 17.1651 4.88726 16.7031 4.82699V12.1495C16.7131 12.5413 16.9039 12.7321 17.2856 12.7321ZM12.1026 18.6484C11.6707 18.6484 11.3593 18.337 11.3593 17.9353C11.3593 17.5335 11.6707 17.2221 12.1026 17.2221H19.9274C20.3392 17.2221 20.6606 17.5335 20.6606 17.9353C20.6606 18.337 20.3392 18.6484 19.9274 18.6484H12.1026ZM12.1026 22.4152C11.6707 22.4152 11.3593 22.1038 11.3593 21.702C11.3593 21.3002 11.6707 20.9888 12.1026 20.9888H19.9274C20.3392 20.9888 20.6606 21.3002 20.6606 21.702C20.6606 22.1038 20.3392 22.4152 19.9274 22.4152H12.1026Z" fill="#666666"/>
</g>
</g>
</svg>
