<svg width="32" height="32" viewBox="0 0 32 32" fill="none" xmlns="http://www.w3.org/2000/svg">
<g id="Iconly/Bulk/Time Circle">
<g id="export (1) 1" clip-path="url(#clip0_896_1429)">
<g id="Group">
<g id="Group_2">
<path id="Vector" d="M22.8476 7.46876L17.8594 2.48038V7.46876H22.8476Z" fill="#0381FF"/>
</g>
<g id="Group_3">
<path id="Vector_2" d="M15.2344 17.0938C15.2344 16.6407 15.6017 16.2734 16.0547 16.2734H23.3281V9.10938H17.0391C16.586 9.10938 16.2188 8.74209 16.2188 8.28906V2H5.00781C3.3493 2 2 3.3493 2 5.00781V26.9922C2 28.6507 3.3493 30 5.00781 30H20.3203C21.9788 30 23.3281 28.6507 23.3281 26.9922V17.9141H16.0547C15.6017 17.9141 15.2344 17.5468 15.2344 17.0938ZM6.10156 11.3516H15.3984C15.8515 11.3516 16.2188 11.7188 16.2188 12.1719C16.2188 12.6249 15.8515 12.9922 15.3984 12.9922H6.10156C5.64853 12.9922 5.28125 12.6249 5.28125 12.1719C5.28125 11.7188 5.64853 11.3516 6.10156 11.3516ZM6.10156 14.6328H13.2109C13.664 14.6328 14.0312 15.0001 14.0312 15.4531C14.0312 15.9062 13.664 16.2734 13.2109 16.2734H6.10156C5.64853 16.2734 5.28125 15.9062 5.28125 15.4531C5.28125 15.0001 5.64853 14.6328 6.10156 14.6328ZM6.10156 17.9141H13.2109C13.664 17.9141 14.0312 18.2813 14.0312 18.7344C14.0312 19.1874 13.664 19.5547 13.2109 19.5547H6.10156C5.64853 19.5547 5.28125 19.1874 5.28125 18.7344C5.28125 18.2813 5.64853 17.9141 6.10156 17.9141ZM15.3984 22.8359H6.10156C5.64853 22.8359 5.28125 22.4687 5.28125 22.0156C5.28125 21.5626 5.64853 21.1953 6.10156 21.1953H15.3984C15.8515 21.1953 16.2188 21.5626 16.2188 22.0156C16.2188 22.4687 15.8515 22.8359 15.3984 22.8359Z" fill="#0381FF"/>
<path id="Vector_3" d="M29.7597 16.5137L26.4784 13.2325C26.1581 12.9121 25.6387 12.9121 25.3184 13.2325C24.998 13.5528 24.998 14.0722 25.3184 14.3926L27.1993 16.2734H23.3281V17.9141H27.1993L25.3184 19.795C24.998 20.1153 24.998 20.6347 25.3184 20.9551C25.4785 21.1153 25.6885 21.1953 25.8984 21.1953C26.1084 21.1953 26.3183 21.1153 26.4784 20.955L29.7597 17.6738C30.0801 17.3535 30.0801 16.8341 29.7597 16.5137Z" fill="#0381FF"/>
</g>
</g>
</g>
</g>
<defs>
<clipPath id="clip0_896_1429">
<rect width="28" height="28" fill="white" transform="translate(2 2)"/>
</clipPath>
</defs>
</svg>
